<svg xmlns="http://www.w3.org/2000/svg" width="940" height="735" viewBox="0 0 940 735" font-family="-apple-system, 'Segoe UI', Helvetica, Arial, sans-serif" font-size="13" data-revision="697798ae199d">
<title>Every library and transport, by client connections</title><desc>Same five calls, same Kestrel, clients on the server's 32 cores, 2026-09-28. TCP and gRPC keep 256 requests in flight per connection; HTTP clients await one POST at a time (1 or 100 RPCs). 5 runs of 2 s per point; whiskers span the runs. Data revision 697798ae199d.</desc>
<rect width="940" height="735" rx="10" fill="#ffffff" stroke="#d1d5db"/>
<text x="24.0" y="32.0" text-anchor="start" font-size="18" fill="#1f2328" font-weight="600">Every library and transport, by client connections</text>
<text x="24.0" y="54.0" text-anchor="start" font-size="12" fill="#57606a">Same five calls, same Kestrel, clients on the server's 32 cores, 2026-09-28. TCP and gRPC keep 256 requests in flight</text>
<text x="24.0" y="70.0" text-anchor="start" font-size="12" fill="#57606a">per connection; HTTP clients await one POST at a time (1 or 100 RPCs). 5 runs of 2 s per point; whiskers span the runs.</text>
<text x="86.0" y="114.0" text-anchor="start" font-size="12" fill="#1f2328" font-weight="600">JSON-RPC.Net</text>
<line x1="86" y1="277.0" x2="610" y2="277.0" stroke="#e5e7eb" stroke-width="1"/>
<text x="78.0" y="281.0" text-anchor="end" font-size="11" fill="#57606a">10 k</text>
<line x1="86" y1="263.9" x2="610" y2="263.9" stroke="#e5e7eb" stroke-width="0.6"/>
<line x1="86" y1="246.6" x2="610" y2="246.6" stroke="#e5e7eb" stroke-width="0.6"/>
<line x1="86" y1="233.5" x2="610" y2="233.5" stroke="#e5e7eb" stroke-width="1"/>
<text x="78.0" y="237.5" text-anchor="end" font-size="11" fill="#57606a">100 k</text>
<line x1="86" y1="220.4" x2="610" y2="220.4" stroke="#e5e7eb" stroke-width="0.6"/>
<line x1="86" y1="203.1" x2="610" y2="203.1" stroke="#e5e7eb" stroke-width="0.6"/>
<line x1="86" y1="189.9" x2="610" y2="189.9" stroke="#e5e7eb" stroke-width="1"/>
<text x="78.0" y="193.9" text-anchor="end" font-size="11" fill="#57606a">1 M</text>
<line x1="86" y1="176.8" x2="610" y2="176.8" stroke="#e5e7eb" stroke-width="0.6"/>
<line x1="86" y1="159.5" x2="610" y2="159.5" stroke="#e5e7eb" stroke-width="0.6"/>
<line x1="86" y1="146.4" x2="610" y2="146.4" stroke="#e5e7eb" stroke-width="1"/>
<text x="78.0" y="150.4" text-anchor="end" font-size="11" fill="#57606a">10 M</text>
<line x1="86" y1="133.3" x2="610" y2="133.3" stroke="#e5e7eb" stroke-width="0.6"/>
<line x1="86" y1="116.0" x2="610" y2="116.0" stroke="#e5e7eb" stroke-width="0.6"/>
<line x1="86.0" y1="116" x2="86.0" y2="277" stroke="#e5e7eb" stroke-width="0.6"/>
<line x1="190.8" y1="116" x2="190.8" y2="277" stroke="#e5e7eb" stroke-width="0.6"/>
<line x1="295.6" y1="116" x2="295.6" y2="277" stroke="#e5e7eb" stroke-width="0.6"/>
<line x1="400.4" y1="116" x2="400.4" y2="277" stroke="#e5e7eb" stroke-width="0.6"/>
<line x1="505.2" y1="116" x2="505.2" y2="277" stroke="#e5e7eb" stroke-width="0.6"/>
<line x1="610.0" y1="116" x2="610.0" y2="277" stroke="#e5e7eb" stroke-width="0.6"/>
<line x1="86" y1="277" x2="610" y2="277" stroke="#57606a"/>
<text x="86.0" y="293.0" text-anchor="middle" font-size="11" fill="#1f2328">1</text>
<text x="190.8" y="293.0" text-anchor="middle" font-size="11" fill="#1f2328">2</text>
<text x="295.6" y="293.0" text-anchor="middle" font-size="11" fill="#1f2328">4</text>
<text x="400.4" y="293.0" text-anchor="middle" font-size="11" fill="#1f2328">8</text>
<text x="505.2" y="293.0" text-anchor="middle" font-size="11" fill="#1f2328">16</text>
<text x="610.0" y="293.0" text-anchor="middle" font-size="11" fill="#1f2328">32</text>
<polyline points="86.0,181.3 190.8,170.1 295.6,159.6 400.4,149.7 505.2,140.3 610.0,135.8" fill="none" stroke="#009e73" stroke-width="2"/>
<line x1="86.0" y1="182.2" x2="86.0" y2="180.3" stroke="#009e73" stroke-width="3"/>
<line x1="81.0" y1="182.2" x2="91.0" y2="182.2" stroke="#009e73" stroke-width="3"/>
<line x1="81.0" y1="180.3" x2="91.0" y2="180.3" stroke="#009e73" stroke-width="3"/>
<line x1="190.8" y1="174.5" x2="190.8" y2="169.8" stroke="#009e73" stroke-width="3"/>
<line x1="185.8" y1="174.5" x2="195.8" y2="174.5" stroke="#009e73" stroke-width="3"/>
<line x1="185.8" y1="169.8" x2="195.8" y2="169.8" stroke="#009e73" stroke-width="3"/>
<line x1="295.6" y1="160.7" x2="295.6" y2="159.1" stroke="#009e73" stroke-width="3"/>
<line x1="290.6" y1="160.7" x2="300.6" y2="160.7" stroke="#009e73" stroke-width="3"/>
<line x1="290.6" y1="159.1" x2="300.6" y2="159.1" stroke="#009e73" stroke-width="3"/>
<line x1="400.4" y1="149.8" x2="400.4" y2="149.4" stroke="#009e73" stroke-width="3"/>
<line x1="395.4" y1="149.8" x2="405.4" y2="149.8" stroke="#009e73" stroke-width="3"/>
<line x1="395.4" y1="149.4" x2="405.4" y2="149.4" stroke="#009e73" stroke-width="3"/>
<line x1="505.2" y1="140.5" x2="505.2" y2="140.2" stroke="#009e73" stroke-width="3"/>
<line x1="500.2" y1="140.5" x2="510.2" y2="140.5" stroke="#009e73" stroke-width="3"/>
<line x1="500.2" y1="140.2" x2="510.2" y2="140.2" stroke="#009e73" stroke-width="3"/>
<line x1="610.0" y1="136.0" x2="610.0" y2="135.6" stroke="#009e73" stroke-width="3"/>
<line x1="605.0" y1="136.0" x2="615.0" y2="136.0" stroke="#009e73" stroke-width="3"/>
<line x1="605.0" y1="135.6" x2="615.0" y2="135.6" stroke="#009e73" stroke-width="3"/>
<circle cx="86.0" cy="181.3" r="4.5" fill="#ffffff" stroke="#009e73" stroke-width="2"/>
<circle cx="190.8" cy="170.1" r="4.5" fill="#ffffff" stroke="#009e73" stroke-width="2"/>
<circle cx="295.6" cy="159.6" r="4.5" fill="#ffffff" stroke="#009e73" stroke-width="2"/>
<circle cx="400.4" cy="149.7" r="4.5" fill="#ffffff" stroke="#009e73" stroke-width="2"/>
<circle cx="505.2" cy="140.3" r="4.5" fill="#ffffff" stroke="#009e73" stroke-width="2"/>
<circle cx="610.0" cy="135.8" r="4.5" fill="#ffffff" stroke="#009e73" stroke-width="2"/>
<line x1="636" y1="127" x2="666" y2="127" stroke="#009e73" stroke-width="2"/>
<circle cx="651.0" cy="127.0" r="4" fill="#ffffff" stroke="#009e73" stroke-width="2"/>
<text x="674.0" y="131.0" text-anchor="start" font-size="11.5" fill="#1f2328">TCP</text>
<text x="674.0" y="144.0" text-anchor="start" font-size="10.5" fill="#57606a">at 32: 17.3 M to 17.8 M</text>
<polyline points="86.0,195.5 190.8,181.7 295.6,169.1 400.4,157.8 505.2,147.7 610.0,139.3" fill="none" stroke="#009e73" stroke-width="2" stroke-dasharray="9 5"/>
<line x1="86.0" y1="196.4" x2="86.0" y2="194.6" stroke="#009e73" stroke-width="3"/>
<line x1="81.0" y1="196.4" x2="91.0" y2="196.4" stroke="#009e73" stroke-width="3"/>
<line x1="81.0" y1="194.6" x2="91.0" y2="194.6" stroke="#009e73" stroke-width="3"/>
<line x1="190.8" y1="181.8" x2="190.8" y2="181.4" stroke="#009e73" stroke-width="3"/>
<line x1="185.8" y1="181.8" x2="195.8" y2="181.8" stroke="#009e73" stroke-width="3"/>
<line x1="185.8" y1="181.4" x2="195.8" y2="181.4" stroke="#009e73" stroke-width="3"/>
<line x1="295.6" y1="169.2" x2="295.6" y2="168.9" stroke="#009e73" stroke-width="3"/>
<line x1="290.6" y1="169.2" x2="300.6" y2="169.2" stroke="#009e73" stroke-width="3"/>
<line x1="290.6" y1="168.9" x2="300.6" y2="168.9" stroke="#009e73" stroke-width="3"/>
<line x1="400.4" y1="157.9" x2="400.4" y2="157.6" stroke="#009e73" stroke-width="3"/>
<line x1="395.4" y1="157.9" x2="405.4" y2="157.9" stroke="#009e73" stroke-width="3"/>
<line x1="395.4" y1="157.6" x2="405.4" y2="157.6" stroke="#009e73" stroke-width="3"/>
<line x1="505.2" y1="147.8" x2="505.2" y2="147.5" stroke="#009e73" stroke-width="3"/>
<line x1="500.2" y1="147.8" x2="510.2" y2="147.8" stroke="#009e73" stroke-width="3"/>
<line x1="500.2" y1="147.5" x2="510.2" y2="147.5" stroke="#009e73" stroke-width="3"/>
<line x1="610.0" y1="139.6" x2="610.0" y2="139.3" stroke="#009e73" stroke-width="3"/>
<line x1="605.0" y1="139.6" x2="615.0" y2="139.6" stroke="#009e73" stroke-width="3"/>
<line x1="605.0" y1="139.3" x2="615.0" y2="139.3" stroke="#009e73" stroke-width="3"/>
<rect x="81.5" y="191.0" width="9.0" height="9.0" fill="#ffffff" stroke="#009e73" stroke-width="2"/>
<rect x="186.3" y="177.2" width="9.0" height="9.0" fill="#ffffff" stroke="#009e73" stroke-width="2"/>
<rect x="291.1" y="164.6" width="9.0" height="9.0" fill="#ffffff" stroke="#009e73" stroke-width="2"/>
<rect x="395.9" y="153.3" width="9.0" height="9.0" fill="#ffffff" stroke="#009e73" stroke-width="2"/>
<rect x="500.7" y="143.2" width="9.0" height="9.0" fill="#ffffff" stroke="#009e73" stroke-width="2"/>
<rect x="605.5" y="134.8" width="9.0" height="9.0" fill="#ffffff" stroke="#009e73" stroke-width="2"/>
<line x1="636" y1="159" x2="666" y2="159" stroke="#009e73" stroke-width="2" stroke-dasharray="9 5"/>
<rect x="647.0" y="155.0" width="8" height="8" fill="#ffffff" stroke="#009e73" stroke-width="2"/>
<text x="674.0" y="163.0" text-anchor="start" font-size="11.5" fill="#1f2328">HTTP, batch of 100 per POST</text>
<text x="674.0" y="176.0" text-anchor="start" font-size="10.5" fill="#57606a">at 32: 14.4 M to 14.6 M</text>
<polyline points="86.0,269.7 190.8,257.1 295.6,244.8 400.4,233.7 505.2,223.8 610.0,213.4" fill="none" stroke="#009e73" stroke-width="2" stroke-dasharray="2 4"/>
<line x1="86.0" y1="270.3" x2="86.0" y2="269.0" stroke="#009e73" stroke-width="3"/>
<line x1="81.0" y1="270.3" x2="91.0" y2="270.3" stroke="#009e73" stroke-width="3"/>
<line x1="81.0" y1="269.0" x2="91.0" y2="269.0" stroke="#009e73" stroke-width="3"/>
<line x1="190.8" y1="257.1" x2="190.8" y2="256.4" stroke="#009e73" stroke-width="3"/>
<line x1="185.8" y1="257.1" x2="195.8" y2="257.1" stroke="#009e73" stroke-width="3"/>
<line x1="185.8" y1="256.4" x2="195.8" y2="256.4" stroke="#009e73" stroke-width="3"/>
<line x1="295.6" y1="244.9" x2="295.6" y2="244.5" stroke="#009e73" stroke-width="3"/>
<line x1="290.6" y1="244.9" x2="300.6" y2="244.9" stroke="#009e73" stroke-width="3"/>
<line x1="290.6" y1="244.5" x2="300.6" y2="244.5" stroke="#009e73" stroke-width="3"/>
<line x1="400.4" y1="234.0" x2="400.4" y2="233.7" stroke="#009e73" stroke-width="3"/>
<line x1="395.4" y1="234.0" x2="405.4" y2="234.0" stroke="#009e73" stroke-width="3"/>
<line x1="395.4" y1="233.7" x2="405.4" y2="233.7" stroke="#009e73" stroke-width="3"/>
<line x1="505.2" y1="224.1" x2="505.2" y2="223.7" stroke="#009e73" stroke-width="3"/>
<line x1="500.2" y1="224.1" x2="510.2" y2="224.1" stroke="#009e73" stroke-width="3"/>
<line x1="500.2" y1="223.7" x2="510.2" y2="223.7" stroke="#009e73" stroke-width="3"/>
<line x1="610.0" y1="213.5" x2="610.0" y2="213.3" stroke="#009e73" stroke-width="3"/>
<line x1="605.0" y1="213.5" x2="615.0" y2="213.5" stroke="#009e73" stroke-width="3"/>
<line x1="605.0" y1="213.3" x2="615.0" y2="213.3" stroke="#009e73" stroke-width="3"/>
<polygon points="86.0,264.1 91.6,274.2 80.4,274.2" fill="#ffffff" stroke="#009e73" stroke-width="2" stroke-linejoin="round"/>
<polygon points="190.8,251.5 196.4,261.6 185.2,261.6" fill="#ffffff" stroke="#009e73" stroke-width="2" stroke-linejoin="round"/>
<polygon points="295.6,239.2 301.2,249.3 290.0,249.3" fill="#ffffff" stroke="#009e73" stroke-width="2" stroke-linejoin="round"/>
<polygon points="400.4,228.1 406.0,238.2 394.8,238.2" fill="#ffffff" stroke="#009e73" stroke-width="2" stroke-linejoin="round"/>
<polygon points="505.2,218.2 510.8,228.3 499.6,228.3" fill="#ffffff" stroke="#009e73" stroke-width="2" stroke-linejoin="round"/>
<polygon points="610.0,207.8 615.6,217.9 604.4,217.9" fill="#ffffff" stroke="#009e73" stroke-width="2" stroke-linejoin="round"/>
<line x1="636" y1="191" x2="666" y2="191" stroke="#009e73" stroke-width="2" stroke-dasharray="2 4"/>
<polygon points="651.0,186.0 656.0,195.0 646.0,195.0" fill="#ffffff" stroke="#009e73" stroke-width="2" stroke-linejoin="round"/>
<text x="674.0" y="195.0" text-anchor="start" font-size="11.5" fill="#1f2328">HTTP, 1 request per POST</text>
<text x="674.0" y="208.0" text-anchor="start" font-size="10.5" fill="#57606a">at 32: 288 k to 290 k</text>
<text x="86.0" y="315.0" text-anchor="start" font-size="12" fill="#1f2328" font-weight="600">StreamJsonRpc</text>
<line x1="86" y1="478.0" x2="610" y2="478.0" stroke="#e5e7eb" stroke-width="1"/>
<text x="78.0" y="482.0" text-anchor="end" font-size="11" fill="#57606a">10 k</text>
<line x1="86" y1="464.9" x2="610" y2="464.9" stroke="#e5e7eb" stroke-width="0.6"/>
<line x1="86" y1="447.6" x2="610" y2="447.6" stroke="#e5e7eb" stroke-width="0.6"/>
<line x1="86" y1="434.5" x2="610" y2="434.5" stroke="#e5e7eb" stroke-width="1"/>
<text x="78.0" y="438.5" text-anchor="end" font-size="11" fill="#57606a">100 k</text>
<line x1="86" y1="421.4" x2="610" y2="421.4" stroke="#e5e7eb" stroke-width="0.6"/>
<line x1="86" y1="404.1" x2="610" y2="404.1" stroke="#e5e7eb" stroke-width="0.6"/>
<line x1="86" y1="390.9" x2="610" y2="390.9" stroke="#e5e7eb" stroke-width="1"/>
<text x="78.0" y="394.9" text-anchor="end" font-size="11" fill="#57606a">1 M</text>
<line x1="86" y1="377.8" x2="610" y2="377.8" stroke="#e5e7eb" stroke-width="0.6"/>
<line x1="86" y1="360.5" x2="610" y2="360.5" stroke="#e5e7eb" stroke-width="0.6"/>
<line x1="86" y1="347.4" x2="610" y2="347.4" stroke="#e5e7eb" stroke-width="1"/>
<text x="78.0" y="351.4" text-anchor="end" font-size="11" fill="#57606a">10 M</text>
<line x1="86" y1="334.3" x2="610" y2="334.3" stroke="#e5e7eb" stroke-width="0.6"/>
<line x1="86" y1="317.0" x2="610" y2="317.0" stroke="#e5e7eb" stroke-width="0.6"/>
<line x1="86.0" y1="317" x2="86.0" y2="478" stroke="#e5e7eb" stroke-width="0.6"/>
<line x1="190.8" y1="317" x2="190.8" y2="478" stroke="#e5e7eb" stroke-width="0.6"/>
<line x1="295.6" y1="317" x2="295.6" y2="478" stroke="#e5e7eb" stroke-width="0.6"/>
<line x1="400.4" y1="317" x2="400.4" y2="478" stroke="#e5e7eb" stroke-width="0.6"/>
<line x1="505.2" y1="317" x2="505.2" y2="478" stroke="#e5e7eb" stroke-width="0.6"/>
<line x1="610.0" y1="317" x2="610.0" y2="478" stroke="#e5e7eb" stroke-width="0.6"/>
<line x1="86" y1="478" x2="610" y2="478" stroke="#57606a"/>
<text x="86.0" y="494.0" text-anchor="middle" font-size="11" fill="#1f2328">1</text>
<text x="190.8" y="494.0" text-anchor="middle" font-size="11" fill="#1f2328">2</text>
<text x="295.6" y="494.0" text-anchor="middle" font-size="11" fill="#1f2328">4</text>
<text x="400.4" y="494.0" text-anchor="middle" font-size="11" fill="#1f2328">8</text>
<text x="505.2" y="494.0" text-anchor="middle" font-size="11" fill="#1f2328">16</text>
<text x="610.0" y="494.0" text-anchor="middle" font-size="11" fill="#1f2328">32</text>
<polyline points="86.0,423.2 190.8,413.9 295.6,405.0 400.4,395.9 505.2,393.3 610.0,391.5" fill="none" stroke="#0072b2" stroke-width="2"/>
<line x1="86.0" y1="424.5" x2="86.0" y2="421.8" stroke="#0072b2" stroke-width="3"/>
<line x1="81.0" y1="424.5" x2="91.0" y2="424.5" stroke="#0072b2" stroke-width="3"/>
<line x1="81.0" y1="421.8" x2="91.0" y2="421.8" stroke="#0072b2" stroke-width="3"/>
<line x1="190.8" y1="414.3" x2="190.8" y2="413.0" stroke="#0072b2" stroke-width="3"/>
<line x1="185.8" y1="414.3" x2="195.8" y2="414.3" stroke="#0072b2" stroke-width="3"/>
<line x1="185.8" y1="413.0" x2="195.8" y2="413.0" stroke="#0072b2" stroke-width="3"/>
<line x1="295.6" y1="405.5" x2="295.6" y2="404.8" stroke="#0072b2" stroke-width="3"/>
<line x1="290.6" y1="405.5" x2="300.6" y2="405.5" stroke="#0072b2" stroke-width="3"/>
<line x1="290.6" y1="404.8" x2="300.6" y2="404.8" stroke="#0072b2" stroke-width="3"/>
<line x1="400.4" y1="396.1" x2="400.4" y2="395.4" stroke="#0072b2" stroke-width="3"/>
<line x1="395.4" y1="396.1" x2="405.4" y2="396.1" stroke="#0072b2" stroke-width="3"/>
<line x1="395.4" y1="395.4" x2="405.4" y2="395.4" stroke="#0072b2" stroke-width="3"/>
<line x1="505.2" y1="393.8" x2="505.2" y2="392.8" stroke="#0072b2" stroke-width="3"/>
<line x1="500.2" y1="393.8" x2="510.2" y2="393.8" stroke="#0072b2" stroke-width="3"/>
<line x1="500.2" y1="392.8" x2="510.2" y2="392.8" stroke="#0072b2" stroke-width="3"/>
<line x1="610.0" y1="392.4" x2="610.0" y2="390.8" stroke="#0072b2" stroke-width="3"/>
<line x1="605.0" y1="392.4" x2="615.0" y2="392.4" stroke="#0072b2" stroke-width="3"/>
<line x1="605.0" y1="390.8" x2="615.0" y2="390.8" stroke="#0072b2" stroke-width="3"/>
<circle cx="86.0" cy="423.2" r="4.5" fill="#ffffff" stroke="#0072b2" stroke-width="2"/>
<circle cx="190.8" cy="413.9" r="4.5" fill="#ffffff" stroke="#0072b2" stroke-width="2"/>
<circle cx="295.6" cy="405.0" r="4.5" fill="#ffffff" stroke="#0072b2" stroke-width="2"/>
<circle cx="400.4" cy="395.9" r="4.5" fill="#ffffff" stroke="#0072b2" stroke-width="2"/>
<circle cx="505.2" cy="393.3" r="4.5" fill="#ffffff" stroke="#0072b2" stroke-width="2"/>
<circle cx="610.0" cy="391.5" r="4.5" fill="#ffffff" stroke="#0072b2" stroke-width="2"/>
<line x1="636" y1="328" x2="666" y2="328" stroke="#0072b2" stroke-width="2"/>
<circle cx="651.0" cy="328.0" r="4" fill="#ffffff" stroke="#0072b2" stroke-width="2"/>
<text x="674.0" y="332.0" text-anchor="start" font-size="11.5" fill="#1f2328">TCP, newline + System.Text.Json</text>
<text x="674.0" y="345.0" text-anchor="start" font-size="10.5" fill="#57606a">at 32: 924 k to 1.01 M</text>
<polyline points="86.0,421.6 190.8,411.3 295.6,402.0 400.4,391.8 505.2,386.6 610.0,387.0" fill="none" stroke="#0072b2" stroke-width="2" stroke-dasharray="9 5"/>
<line x1="86.0" y1="421.7" x2="86.0" y2="420.4" stroke="#0072b2" stroke-width="3"/>
<line x1="81.0" y1="421.7" x2="91.0" y2="421.7" stroke="#0072b2" stroke-width="3"/>
<line x1="81.0" y1="420.4" x2="91.0" y2="420.4" stroke="#0072b2" stroke-width="3"/>
<line x1="190.8" y1="411.5" x2="190.8" y2="410.7" stroke="#0072b2" stroke-width="3"/>
<line x1="185.8" y1="411.5" x2="195.8" y2="411.5" stroke="#0072b2" stroke-width="3"/>
<line x1="185.8" y1="410.7" x2="195.8" y2="410.7" stroke="#0072b2" stroke-width="3"/>
<line x1="295.6" y1="402.2" x2="295.6" y2="401.8" stroke="#0072b2" stroke-width="3"/>
<line x1="290.6" y1="402.2" x2="300.6" y2="402.2" stroke="#0072b2" stroke-width="3"/>
<line x1="290.6" y1="401.8" x2="300.6" y2="401.8" stroke="#0072b2" stroke-width="3"/>
<line x1="400.4" y1="392.1" x2="400.4" y2="391.6" stroke="#0072b2" stroke-width="3"/>
<line x1="395.4" y1="392.1" x2="405.4" y2="392.1" stroke="#0072b2" stroke-width="3"/>
<line x1="395.4" y1="391.6" x2="405.4" y2="391.6" stroke="#0072b2" stroke-width="3"/>
<line x1="505.2" y1="388.9" x2="505.2" y2="386.5" stroke="#0072b2" stroke-width="3"/>
<line x1="500.2" y1="388.9" x2="510.2" y2="388.9" stroke="#0072b2" stroke-width="3"/>
<line x1="500.2" y1="386.5" x2="510.2" y2="386.5" stroke="#0072b2" stroke-width="3"/>
<line x1="610.0" y1="388.9" x2="610.0" y2="386.7" stroke="#0072b2" stroke-width="3"/>
<line x1="605.0" y1="388.9" x2="615.0" y2="388.9" stroke="#0072b2" stroke-width="3"/>
<line x1="605.0" y1="386.7" x2="615.0" y2="386.7" stroke="#0072b2" stroke-width="3"/>
<rect x="81.5" y="417.1" width="9.0" height="9.0" fill="#ffffff" stroke="#0072b2" stroke-width="2"/>
<rect x="186.3" y="406.8" width="9.0" height="9.0" fill="#ffffff" stroke="#0072b2" stroke-width="2"/>
<rect x="291.1" y="397.5" width="9.0" height="9.0" fill="#ffffff" stroke="#0072b2" stroke-width="2"/>
<rect x="395.9" y="387.3" width="9.0" height="9.0" fill="#ffffff" stroke="#0072b2" stroke-width="2"/>
<rect x="500.7" y="382.1" width="9.0" height="9.0" fill="#ffffff" stroke="#0072b2" stroke-width="2"/>
<rect x="605.5" y="382.5" width="9.0" height="9.0" fill="#ffffff" stroke="#0072b2" stroke-width="2"/>
<line x1="636" y1="360" x2="666" y2="360" stroke="#0072b2" stroke-width="2" stroke-dasharray="9 5"/>
<rect x="647.0" y="356.0" width="8" height="8" fill="#ffffff" stroke="#0072b2" stroke-width="2"/>
<text x="674.0" y="364.0" text-anchor="start" font-size="11.5" fill="#1f2328">TCP, Content-Length + System.Text.Json</text>
<text x="674.0" y="377.0" text-anchor="start" font-size="10.5" fill="#57606a">at 32: 1.12 M to 1.25 M</text>
<polyline points="86.0,429.1 190.8,420.1 295.6,410.1 400.4,399.6 505.2,398.1 610.0,398.6" fill="none" stroke="#0072b2" stroke-width="2" stroke-dasharray="2 4"/>
<line x1="86.0" y1="430.7" x2="86.0" y2="428.2" stroke="#0072b2" stroke-width="3"/>
<line x1="81.0" y1="430.7" x2="91.0" y2="430.7" stroke="#0072b2" stroke-width="3"/>
<line x1="81.0" y1="428.2" x2="91.0" y2="428.2" stroke="#0072b2" stroke-width="3"/>
<line x1="190.8" y1="420.9" x2="190.8" y2="419.5" stroke="#0072b2" stroke-width="3"/>
<line x1="185.8" y1="420.9" x2="195.8" y2="420.9" stroke="#0072b2" stroke-width="3"/>
<line x1="185.8" y1="419.5" x2="195.8" y2="419.5" stroke="#0072b2" stroke-width="3"/>
<line x1="295.6" y1="410.4" x2="295.6" y2="409.8" stroke="#0072b2" stroke-width="3"/>
<line x1="290.6" y1="410.4" x2="300.6" y2="410.4" stroke="#0072b2" stroke-width="3"/>
<line x1="290.6" y1="409.8" x2="300.6" y2="409.8" stroke="#0072b2" stroke-width="3"/>
<line x1="400.4" y1="400.1" x2="400.4" y2="399.3" stroke="#0072b2" stroke-width="3"/>
<line x1="395.4" y1="400.1" x2="405.4" y2="400.1" stroke="#0072b2" stroke-width="3"/>
<line x1="395.4" y1="399.3" x2="405.4" y2="399.3" stroke="#0072b2" stroke-width="3"/>
<line x1="505.2" y1="398.8" x2="505.2" y2="396.8" stroke="#0072b2" stroke-width="3"/>
<line x1="500.2" y1="398.8" x2="510.2" y2="398.8" stroke="#0072b2" stroke-width="3"/>
<line x1="500.2" y1="396.8" x2="510.2" y2="396.8" stroke="#0072b2" stroke-width="3"/>
<line x1="610.0" y1="400.0" x2="610.0" y2="396.6" stroke="#0072b2" stroke-width="3"/>
<line x1="605.0" y1="400.0" x2="615.0" y2="400.0" stroke="#0072b2" stroke-width="3"/>
<line x1="605.0" y1="396.6" x2="615.0" y2="396.6" stroke="#0072b2" stroke-width="3"/>
<polygon points="86.0,423.4 91.6,433.6 80.4,433.6" fill="#ffffff" stroke="#0072b2" stroke-width="2" stroke-linejoin="round"/>
<polygon points="190.8,414.5 196.4,424.6 185.2,424.6" fill="#ffffff" stroke="#0072b2" stroke-width="2" stroke-linejoin="round"/>
<polygon points="295.6,404.4 301.2,414.6 290.0,414.6" fill="#ffffff" stroke="#0072b2" stroke-width="2" stroke-linejoin="round"/>
<polygon points="400.4,393.9 406.0,404.1 394.8,404.1" fill="#ffffff" stroke="#0072b2" stroke-width="2" stroke-linejoin="round"/>
<polygon points="505.2,392.4 510.8,402.6 499.6,402.6" fill="#ffffff" stroke="#0072b2" stroke-width="2" stroke-linejoin="round"/>
<polygon points="610.0,392.9 615.6,403.1 604.4,403.1" fill="#ffffff" stroke="#0072b2" stroke-width="2" stroke-linejoin="round"/>
<line x1="636" y1="392" x2="666" y2="392" stroke="#0072b2" stroke-width="2" stroke-dasharray="2 4"/>
<polygon points="651.0,387.0 656.0,396.0 646.0,396.0" fill="#ffffff" stroke="#0072b2" stroke-width="2" stroke-linejoin="round"/>
<text x="674.0" y="396.0" text-anchor="start" font-size="11.5" fill="#1f2328">TCP, Content-Length + Json.NET</text>
<text x="674.0" y="409.0" text-anchor="start" font-size="10.5" fill="#57606a">at 32: 619 k to 741 k</text>
<text x="86.0" y="516.0" text-anchor="start" font-size="12" fill="#1f2328" font-weight="600">gRPC for .NET</text>
<line x1="86" y1="679.0" x2="610" y2="679.0" stroke="#e5e7eb" stroke-width="1"/>
<text x="78.0" y="683.0" text-anchor="end" font-size="11" fill="#57606a">10 k</text>
<line x1="86" y1="665.9" x2="610" y2="665.9" stroke="#e5e7eb" stroke-width="0.6"/>
<line x1="86" y1="648.6" x2="610" y2="648.6" stroke="#e5e7eb" stroke-width="0.6"/>
<line x1="86" y1="635.5" x2="610" y2="635.5" stroke="#e5e7eb" stroke-width="1"/>
<text x="78.0" y="639.5" text-anchor="end" font-size="11" fill="#57606a">100 k</text>
<line x1="86" y1="622.4" x2="610" y2="622.4" stroke="#e5e7eb" stroke-width="0.6"/>
<line x1="86" y1="605.1" x2="610" y2="605.1" stroke="#e5e7eb" stroke-width="0.6"/>
<line x1="86" y1="591.9" x2="610" y2="591.9" stroke="#e5e7eb" stroke-width="1"/>
<text x="78.0" y="595.9" text-anchor="end" font-size="11" fill="#57606a">1 M</text>
<line x1="86" y1="578.8" x2="610" y2="578.8" stroke="#e5e7eb" stroke-width="0.6"/>
<line x1="86" y1="561.5" x2="610" y2="561.5" stroke="#e5e7eb" stroke-width="0.6"/>
<line x1="86" y1="548.4" x2="610" y2="548.4" stroke="#e5e7eb" stroke-width="1"/>
<text x="78.0" y="552.4" text-anchor="end" font-size="11" fill="#57606a">10 M</text>
<line x1="86" y1="535.3" x2="610" y2="535.3" stroke="#e5e7eb" stroke-width="0.6"/>
<line x1="86" y1="518.0" x2="610" y2="518.0" stroke="#e5e7eb" stroke-width="0.6"/>
<line x1="86.0" y1="518" x2="86.0" y2="679" stroke="#e5e7eb" stroke-width="0.6"/>
<line x1="190.8" y1="518" x2="190.8" y2="679" stroke="#e5e7eb" stroke-width="0.6"/>
<line x1="295.6" y1="518" x2="295.6" y2="679" stroke="#e5e7eb" stroke-width="0.6"/>
<line x1="400.4" y1="518" x2="400.4" y2="679" stroke="#e5e7eb" stroke-width="0.6"/>
<line x1="505.2" y1="518" x2="505.2" y2="679" stroke="#e5e7eb" stroke-width="0.6"/>
<line x1="610.0" y1="518" x2="610.0" y2="679" stroke="#e5e7eb" stroke-width="0.6"/>
<line x1="86" y1="679" x2="610" y2="679" stroke="#57606a"/>
<text x="86.0" y="695.0" text-anchor="middle" font-size="11" fill="#1f2328">1</text>
<text x="190.8" y="695.0" text-anchor="middle" font-size="11" fill="#1f2328">2</text>
<text x="295.6" y="695.0" text-anchor="middle" font-size="11" fill="#1f2328">4</text>
<text x="400.4" y="695.0" text-anchor="middle" font-size="11" fill="#1f2328">8</text>
<text x="505.2" y="695.0" text-anchor="middle" font-size="11" fill="#1f2328">16</text>
<text x="610.0" y="695.0" text-anchor="middle" font-size="11" fill="#1f2328">32</text>
<polyline points="86.0,629.4 190.8,617.8 295.6,612.5 400.4,611.8 505.2,613.8 610.0,616.4" fill="none" stroke="#d55e00" stroke-width="2"/>
<line x1="86.0" y1="629.6" x2="86.0" y2="628.7" stroke="#d55e00" stroke-width="3"/>
<line x1="81.0" y1="629.6" x2="91.0" y2="629.6" stroke="#d55e00" stroke-width="3"/>
<line x1="81.0" y1="628.7" x2="91.0" y2="628.7" stroke="#d55e00" stroke-width="3"/>
<line x1="190.8" y1="618.0" x2="190.8" y2="617.7" stroke="#d55e00" stroke-width="3"/>
<line x1="185.8" y1="618.0" x2="195.8" y2="618.0" stroke="#d55e00" stroke-width="3"/>
<line x1="185.8" y1="617.7" x2="195.8" y2="617.7" stroke="#d55e00" stroke-width="3"/>
<line x1="295.6" y1="613.0" x2="295.6" y2="612.4" stroke="#d55e00" stroke-width="3"/>
<line x1="290.6" y1="613.0" x2="300.6" y2="613.0" stroke="#d55e00" stroke-width="3"/>
<line x1="290.6" y1="612.4" x2="300.6" y2="612.4" stroke="#d55e00" stroke-width="3"/>
<line x1="400.4" y1="612.5" x2="400.4" y2="611.4" stroke="#d55e00" stroke-width="3"/>
<line x1="395.4" y1="612.5" x2="405.4" y2="612.5" stroke="#d55e00" stroke-width="3"/>
<line x1="395.4" y1="611.4" x2="405.4" y2="611.4" stroke="#d55e00" stroke-width="3"/>
<line x1="505.2" y1="614.2" x2="505.2" y2="613.3" stroke="#d55e00" stroke-width="3"/>
<line x1="500.2" y1="614.2" x2="510.2" y2="614.2" stroke="#d55e00" stroke-width="3"/>
<line x1="500.2" y1="613.3" x2="510.2" y2="613.3" stroke="#d55e00" stroke-width="3"/>
<line x1="610.0" y1="616.7" x2="610.0" y2="615.4" stroke="#d55e00" stroke-width="3"/>
<line x1="605.0" y1="616.7" x2="615.0" y2="616.7" stroke="#d55e00" stroke-width="3"/>
<line x1="605.0" y1="615.4" x2="615.0" y2="615.4" stroke="#d55e00" stroke-width="3"/>
<circle cx="86.0" cy="629.4" r="4.5" fill="#ffffff" stroke="#d55e00" stroke-width="2"/>
<circle cx="190.8" cy="617.8" r="4.5" fill="#ffffff" stroke="#d55e00" stroke-width="2"/>
<circle cx="295.6" cy="612.5" r="4.5" fill="#ffffff" stroke="#d55e00" stroke-width="2"/>
<circle cx="400.4" cy="611.8" r="4.5" fill="#ffffff" stroke="#d55e00" stroke-width="2"/>
<circle cx="505.2" cy="613.8" r="4.5" fill="#ffffff" stroke="#d55e00" stroke-width="2"/>
<circle cx="610.0" cy="616.4" r="4.5" fill="#ffffff" stroke="#d55e00" stroke-width="2"/>
<line x1="636" y1="529" x2="666" y2="529" stroke="#d55e00" stroke-width="2"/>
<circle cx="651.0" cy="529.0" r="4" fill="#ffffff" stroke="#d55e00" stroke-width="2"/>
<text x="674.0" y="533.0" text-anchor="start" font-size="11.5" fill="#1f2328">unary</text>
<text x="674.0" y="546.0" text-anchor="start" font-size="10.5" fill="#57606a">at 32: 269 k to 290 k</text>
<polyline points="86.0,654.5 190.8,642.2 295.6,631.2 400.4,619.9 505.2,607.7 610.0,593.9" fill="none" stroke="#d55e00" stroke-width="2" stroke-dasharray="9 5"/>
<line x1="86.0" y1="655.0" x2="86.0" y2="654.4" stroke="#d55e00" stroke-width="3"/>
<line x1="81.0" y1="655.0" x2="91.0" y2="655.0" stroke="#d55e00" stroke-width="3"/>
<line x1="81.0" y1="654.4" x2="91.0" y2="654.4" stroke="#d55e00" stroke-width="3"/>
<line x1="190.8" y1="642.4" x2="190.8" y2="642.1" stroke="#d55e00" stroke-width="3"/>
<line x1="185.8" y1="642.4" x2="195.8" y2="642.4" stroke="#d55e00" stroke-width="3"/>
<line x1="185.8" y1="642.1" x2="195.8" y2="642.1" stroke="#d55e00" stroke-width="3"/>
<line x1="295.6" y1="631.2" x2="295.6" y2="631.2" stroke="#d55e00" stroke-width="3"/>
<line x1="290.6" y1="631.2" x2="300.6" y2="631.2" stroke="#d55e00" stroke-width="3"/>
<line x1="290.6" y1="631.2" x2="300.6" y2="631.2" stroke="#d55e00" stroke-width="3"/>
<line x1="400.4" y1="620.2" x2="400.4" y2="619.8" stroke="#d55e00" stroke-width="3"/>
<line x1="395.4" y1="620.2" x2="405.4" y2="620.2" stroke="#d55e00" stroke-width="3"/>
<line x1="395.4" y1="619.8" x2="405.4" y2="619.8" stroke="#d55e00" stroke-width="3"/>
<line x1="505.2" y1="608.2" x2="505.2" y2="607.6" stroke="#d55e00" stroke-width="3"/>
<line x1="500.2" y1="608.2" x2="510.2" y2="608.2" stroke="#d55e00" stroke-width="3"/>
<line x1="500.2" y1="607.6" x2="510.2" y2="607.6" stroke="#d55e00" stroke-width="3"/>
<line x1="610.0" y1="594.1" x2="610.0" y2="593.7" stroke="#d55e00" stroke-width="3"/>
<line x1="605.0" y1="594.1" x2="615.0" y2="594.1" stroke="#d55e00" stroke-width="3"/>
<line x1="605.0" y1="593.7" x2="615.0" y2="593.7" stroke="#d55e00" stroke-width="3"/>
<rect x="81.5" y="650.0" width="9.0" height="9.0" fill="#ffffff" stroke="#d55e00" stroke-width="2"/>
<rect x="186.3" y="637.7" width="9.0" height="9.0" fill="#ffffff" stroke="#d55e00" stroke-width="2"/>
<rect x="291.1" y="626.7" width="9.0" height="9.0" fill="#ffffff" stroke="#d55e00" stroke-width="2"/>
<rect x="395.9" y="615.4" width="9.0" height="9.0" fill="#ffffff" stroke="#d55e00" stroke-width="2"/>
<rect x="500.7" y="603.2" width="9.0" height="9.0" fill="#ffffff" stroke="#d55e00" stroke-width="2"/>
<rect x="605.5" y="589.4" width="9.0" height="9.0" fill="#ffffff" stroke="#d55e00" stroke-width="2"/>
<line x1="636" y1="561" x2="666" y2="561" stroke="#d55e00" stroke-width="2" stroke-dasharray="9 5"/>
<rect x="647.0" y="557.0" width="8" height="8" fill="#ffffff" stroke="#d55e00" stroke-width="2"/>
<text x="674.0" y="565.0" text-anchor="start" font-size="11.5" fill="#1f2328">bidirectional stream</text>
<text x="674.0" y="578.0" text-anchor="start" font-size="10.5" fill="#57606a">at 32: 893 k to 913 k</text>
<text x="348.0" y="725.0" text-anchor="middle" font-size="12" fill="#57606a">client connections (gRPC: channels); each step doubles</text>
<text x="0.0" y="0.0" text-anchor="middle" font-size="12" fill="#57606a" transform="translate(20 403.5) rotate(-90)">requests per second, log scale, shared by the panels; marker at the median, whisker low to high</text>
</svg>
